<?xml version="1.0" encoding="UTF-8"?>
<svg version="1.1" xmlns="http://www.w3.org/2000/svg" width="1474" height="255">
<path d="M0 0 C6.04693978 6.34928677 9.48884121 11.98110747 9.875 20.9375 C9.68762806 28.60933988 7.40873846 34.14549194 1.875 39.5 C-3.35034642 43.64357415 -8.67857672 45.84586183 -15.40625 45.45703125 C-19.37110827 44.83352531 -22.61883258 44.16229721 -26.0625 42.0625 C-46.49230153 30.01415551 -92.21491867 42.12185276 -113.67822266 47.40771484 C-135.6611271 52.94128197 -135.6611271 52.94128197 -156.5 61.625 C-149.3301956 65.46930322 -142.10165332 68.35321021 -134.375 70.875 C-133.21049316 71.25994629 -132.04598633 71.64489258 -130.84619141 72.04150391 C-121.91959848 74.94616078 -112.92432565 77.51249517 -103.875 80 C-30.32867947 100.28342601 -30.32867947 100.28342601 -16.5 121.625 C-9.830464 133.43465122 -7.37877282 143.80331672 -11 157.1875 C-15.94593634 171.61171155 -26.88183972 181.09465849 -40.1875 187.8125 C-42.93596342 189.13648056 -45.70766687 190.39650703 -48.5 191.625 C-49.11939453 191.89940918 -49.73878906 192.17381836 -50.37695312 192.45654297 C-58.81670714 196.10549544 -67.52006881 198.55389022 -76.4375 200.75 C-77.35781006 200.97961426 -78.27812012 201.20922852 -79.22631836 201.44580078 C-103.14424589 207.0615745 -127.76477227 209.26938047 -152.1385498 211.95513916 C-159.23063288 212.7371947 -166.32184134 213.52701721 -173.4125576 214.32136154 C-175.85368079 214.59352397 -178.29524446 214.86140985 -180.7368927 215.1288147 C-188.18302134 215.95348692 -195.58417242 216.87342526 -202.96183777 218.19760132 C-207.45716531 218.95456517 -211.95182791 219.35672648 -216.5 219.625 C-217.55316406 219.69074219 -218.60632813 219.75648438 -219.69140625 219.82421875 C-229.20210208 220.1498506 -237.17072441 218.54448147 -244.8125 212.625 C-251.82929046 205.76735324 -255.07747361 197.83392264 -255.25 188.125 C-255.07747361 178.41607736 -251.82929046 170.48264676 -244.8125 163.625 C-234.90832841 156.20295794 -222.89104194 155.45749378 -211 154.1875 C-209.14385461 153.97955782 -207.28773557 153.77138026 -205.43164062 153.56298828 C-186.54695863 151.48560224 -167.61081397 149.92548331 -148.67382812 148.41235352 C-136.5662933 147.4394009 -124.48082261 146.36542223 -112.40625 145.0390625 C-110.67719421 144.85082413 -110.67719421 144.85082413 -108.91320801 144.65878296 C-107.85194702 144.53886993 -106.79068604 144.41895691 -105.69726562 144.29541016 C-104.76321899 144.19007965 -103.82917236 144.08474915 -102.86682129 143.97622681 C-100.35698811 143.67374409 -100.35698811 143.67374409 -97.5 142.625 C-99.03986572 142.12685791 -99.03986572 142.12685791 -100.61083984 141.61865234 C-104.51393023 140.35577773 -108.41667782 139.09184645 -112.31933594 137.82763672 C-113.99079581 137.28634431 -115.6623418 136.74531775 -117.33398438 136.20458984 C-123.0586056 134.35270936 -128.78038392 132.49228013 -134.5 130.625 C-135.70006683 130.23417236 -135.70006683 130.23417236 -136.92437744 129.83544922 C-196.44569636 110.41156821 -196.44569636 110.41156821 -211.5 83.625 C-217.31725063 71.25888134 -219.11800793 56.8670615 -214.6875 43.6875 C-206.41634205 25.26537547 -187.44199394 15.75995836 -169.56274414 8.82543945 C-159.38906356 5.02220415 -149.06428273 2.11594666 -138.5 -0.375 C-137.60265137 -0.58898438 -136.70530273 -0.80296875 -135.78076172 -1.0234375 C-121.77359156 -4.32667166 -107.79377615 -6.73251518 -93.5 -8.375 C-92.65244141 -8.47941406 -91.80488281 -8.58382813 -90.93164062 -8.69140625 C-22.38892074 -17.01557976 -22.38892074 -17.01557976 0 0 Z " fill="#FFFFFF" transform="translate(254.5,12.375)"/>
<path d="M0 0 C5.80416431 5.23790438 10.00716446 9.75046743 10.8125 17.81640625 C11.15297477 25.46644875 9.86935094 31.39609128 4.8671875 37.3203125 C-2.74438331 44.6853547 -10.86811339 45.39584739 -21 45.75 C-27.98733058 46.00019782 -33.41825571 46.50251783 -39.4375 50.3125 C-40.05573135 50.67123199 -40.67396271 51.02996399 -41.31092834 51.39956665 C-44.46656937 53.57807891 -46.1853076 55.19770454 -47.04855347 59.01361084 C-47.24856911 62.41284636 -47.22408635 65.74481558 -47.12109375 69.1484375 C-47.11118912 70.38292633 -47.10128448 71.61741516 -47.09107971 72.88931274 C-47.05196714 76.82326193 -46.96413751 80.75439747 -46.875 84.6875 C-46.83593443 87.35803213 -46.80794522 90.02853781 -46.77929688 92.69921875 C-46.70221442 99.23793539 -46.58515083 105.77501669 -46.4375 112.3125 C-45.4475 111.9825 -44.4575 111.6525 -43.4375 111.3125 C-41.96135069 111.20669484 -40.48104108 111.15402269 -39.0012207 111.13549805 C-37.65886101 111.11624519 -37.65886101 111.11624519 -36.28938293 111.09660339 C-35.32376938 111.08921646 -34.35815582 111.08182953 -33.36328125 111.07421875 C-32.36548141 111.066147 -31.36768158 111.05807526 -30.33964539 111.04975891 C-28.22555272 111.03592391 -26.11143776 111.02519915 -23.99731445 111.01733398 C-20.7796737 111.0001584 -17.56307049 110.95627077 -14.34570312 110.91210938 C-12.28907004 110.90197877 -10.23242823 110.89346382 -8.17578125 110.88671875 C-7.22028885 110.86921066 -6.26479645 110.85170258 -5.28034973 110.83366394 C2.44603653 110.85848537 7.23229891 113.09236594 13.5625 117.3125 C13.40394531 116.73757812 13.24539063 116.16265625 13.08203125 115.5703125 C11.33632867 107.98372533 12.62070947 101.00360662 16.5625 94.3125 C20.83801223 89.28575894 25.09693904 86.52479268 31.5625 85.3125 C31.40394531 84.74789062 31.24539063 84.18328125 31.08203125 83.6015625 C29.29960545 75.74816763 30.41033073 68.21736088 34.5625 61.3125 C39.06492488 56.22729778 43.73363096 52.73411682 50.61328125 51.9765625 C58.86350094 51.87775747 64.31599635 52.50412768 70.53125 58.078125 C74.82511393 62.54796696 76.58281813 66.21670171 77.5625 72.3125 C78.32618896 72.13074219 79.08987793 71.94898437 79.87670898 71.76171875 C93.68758494 68.51919238 107.61846264 65.90579044 121.5625 63.3125 C122.54299316 63.1259082 123.52348633 62.93931641 124.53369141 62.74707031 C134.64229441 60.85277067 144.52199839 60.03168881 154.8125 59.9375 C155.86099121 59.92348145 156.90948242 59.90946289 157.98974609 59.89501953 C166.05159722 59.94575573 172.93548161 61.10969521 179.1796875 66.72265625 C184.53531451 72.88011442 186.94994959 79.75069993 186.84375 87.80859375 C186.04797047 94.89324202 182.74326396 101.46961195 177.5625 106.3125 C170.12628722 111.44085713 162.69598048 112.08261686 153.90731812 112.31512451 C150.21676407 112.41755434 146.53067326 112.60259799 142.84375 112.79296875 C142.11866745 112.82992859 141.3935849 112.86688843 140.64653015 112.90496826 C134.06339188 113.27481013 127.78936941 114.31794503 121.3581543 115.70239258 C113.80342241 117.32520492 106.21214773 118.47771365 98.5625 119.5625 C97.34973389 119.73765137 96.13696777 119.91280273 94.88745117 120.09326172 C90.07172636 120.77007366 85.4339568 121.41733446 80.5625 121.3125 C80.68367187 122.15167969 80.80484375 122.99085938 80.9296875 123.85546875 C82.10048787 132.25821294 82.98985958 140.65273018 83.73510742 149.10351562 C84.41332364 156.4635898 85.43377701 163.74915191 86.68530273 171.03369141 C87.9525487 179.00628342 88.01589257 187.13432794 83.9921875 194.359375 C79.9740754 199.84859918 74.44019734 205.21206843 67.5625 206.3125 C59.44972956 207.22679635 53.28621307 206.06941265 46.5625 201.3125 C40.15252936 195.42482327 37.60293248 190.04751604 36.52734375 181.4140625 C36.44394241 180.75005936 36.36054108 180.08605621 36.27461243 179.40193176 C36.0079084 177.24805842 35.75302518 175.09302017 35.5 172.9375 C35.36785095 171.8398381 35.36785095 171.8398381 35.23303223 170.72000122 C33.70167191 157.93167348 32.82246416 145.19372426 32.5625 132.3125 C31.17998047 132.12880859 31.17998047 132.12880859 29.76953125 131.94140625 C25.9591667 131.19418494 23.68463308 129.56334013 20.5625 127.3125 C20.2325 127.3125 19.9025 127.3125 19.5625 127.3125 C19.72105469 127.88742188 19.87960937 128.46234375 20.04296875 129.0546875 C21.80445344 136.70986158 20.38551283 143.509786 16.5625 150.3125 C12.79823204 155.27872481 8.604564 158.55295446 2.5625 160.3125 C-1.45570427 160.7716456 -5.45455866 160.80076926 -9.49609375 160.82421875 C-10.64038345 160.84216995 -11.78467316 160.86012115 -12.96363831 160.87861633 C-16.60072195 160.93258453 -20.23767534 160.96657269 -23.875 161 C-26.34832536 161.03318487 -28.82163357 161.06767561 -31.29492188 161.10351562 C-37.3423311 161.18830339 -43.38975746 161.25671034 -49.4375 161.3125 C-49.6353006 162.43881081 -49.6353006 162.43881081 -49.83709717 163.58787537 C-50.01299377 164.57522171 -50.18889038 165.56256805 -50.37011719 166.57983398 C-50.54323425 167.55758286 -50.71635132 168.53533173 -50.89471436 169.54270935 C-51.55920601 172.93355581 -52.54394248 176.11586107 -53.6875 179.375 C-54.13252331 180.64678144 -54.57648397 181.91893508 -55.01953125 183.19140625 C-55.2510791 183.85285645 -55.48262695 184.51430664 -55.72119141 185.19580078 C-56.48769968 187.46084056 -57.19146264 189.7394715 -57.88671875 192.02734375 C-58.13454102 192.82325928 -58.38236328 193.6191748 -58.63769531 194.43920898 C-59.11485237 195.97511752 -59.57988579 197.51486741 -60.03027344 199.05883789 C-62.0812803 205.5300425 -65.36570267 210.27982699 -71.0703125 214.0546875 C-71.89273438 214.42851562 -72.71515625 214.80234375 -73.5625 215.1875 C-74.39007813 215.57679688 -75.21765625 215.96609375 -76.0703125 216.3671875 C-83.80338351 219.45531157 -90.23334062 218.51994246 -97.859375 215.48828125 C-104.95409015 212.25266116 -108.05052846 207.73108516 -111.29296875 200.75 C-115.12380683 189.24441123 -111.85994461 179.06917516 -107.4375 168.3125 C-106.36036408 165.57500506 -105.33095166 162.8222791 -104.3125 160.0625 C-104.07128418 159.45680176 -103.83006836 158.85110352 -103.58154297 158.22705078 C-98.60252677 144.77383751 -97.99749378 130.0643265 -97.87217903 115.87985802 C-97.84688281 113.11467212 -97.80298507 110.35027952 -97.75474548 107.58540344 C-97.62131851 99.73978067 -97.52249047 91.89379393 -97.42895508 84.04760742 C-97.37002316 79.20895774 -97.29249701 74.37086787 -97.20455742 69.53266335 C-97.16130856 66.83363089 -97.13967133 64.13499675 -97.1186676 61.43571472 C-96.86494454 43.76649534 -92.53937358 31.84789652 -80.3125 18.6875 C-71.46673994 10.19191633 -60.87381041 4.53462623 -49.4375 0.3125 C-48.674375 0.00570313 -47.91125 -0.30109375 -47.125 -0.6171875 C-34.02600083 -5.82701672 -12.73114745 -6.24983602 0 0 Z " fill="#FFFFFF" transform="translate(585.4375,18.6875)"/>
<path d="M0 0 C6.36797028 3.80459241 10.81141273 9.3230077 12.625 16.5 C12.84090595 19.31799324 12.95796201 21.99821074 12.9375 24.8125 C12.93230347 25.99283813 12.93230347 25.99283813 12.92700195 27.19702148 C12.79043756 34.74880584 11.57671149 41.93630661 10.06152344 49.31640625 C9.28140482 53.21874456 8.6176364 57.14173788 7.9375 61.0625 C7.68407301 62.50138658 7.43021316 63.94019703 7.17578125 65.37890625 C6.99402344 66.40886719 6.81226563 67.43882813 6.625 68.5 C6.97949219 68.0875 7.33398438 67.675 7.69921875 67.25 C16.93043735 57.23647474 31.53769471 48.93946179 45.18359375 46.9921875 C53.07306888 46.71856409 58.78046695 47.91482037 64.59375 53.3359375 C70.5397528 59.69621098 72.07772323 65.12584769 71.8671875 73.7578125 C71.28572506 80.34146787 68.93907244 85.16661912 64.125 89.7109375 C60.14924161 92.5560896 55.76988892 94.58564442 51.31176758 96.57226562 C46.93513659 98.57719688 44.37553475 100.396534 41.625 104.5 C41.13515625 105.19222656 40.6453125 105.88445312 40.140625 106.59765625 C39.72296875 107.24605469 39.3053125 107.89445312 38.875 108.5625 C38.44703125 109.21347656 38.0190625 109.86445313 37.578125 110.53515625 C36.33403397 112.73584976 36.33403397 112.73584976 36.625 116.5 C65.27373189 132.29251426 95.47697247 146.3080514 125.8671875 158.3984375 C127.08768799 158.88578369 128.30818848 159.37312988 129.56567383 159.87524414 C131.90443939 160.80334073 134.24777451 161.72004088 136.59643555 162.62280273 C144.52144518 165.75278796 152.61753148 169.1431336 156.5625 177.1875 C157.13291016 178.30705078 157.13291016 178.30705078 157.71484375 179.44921875 C160.55876506 185.85719596 160.74234354 193.38890448 158.90625 200.14453125 C155.59960749 207.97114074 151.04129631 212.97609547 143.30078125 216.51953125 C130.04442135 221.37697115 118.24503356 214.67235045 106.22314453 209.30444336 C104.02826291 208.32511061 101.82902134 207.35618049 99.62890625 206.38867188 C90.49312482 202.34990098 81.53157352 198.03365211 72.62640381 193.51156616 C69.22763282 191.79373106 65.81209432 190.10987478 62.3984375 188.421875 C15.42377258 165.13325914 15.42377258 165.13325914 -1.375 152.5 C-1.41463867 153.66982422 -1.45427734 154.83964844 -1.49511719 156.04492188 C-1.64807395 160.4142391 -1.82536858 164.7822967 -2.00976562 169.15039062 C-2.08599906 171.035553 -2.15576373 172.92098916 -2.21875 174.80664062 C-2.31081575 177.52833439 -2.42665641 180.24817144 -2.546875 182.96875 C-2.58152863 184.21924133 -2.58152863 184.21924133 -2.61688232 185.49499512 C-2.96763102 192.55796805 -5.08320894 197.76258291 -9.625 203.1875 C-15.9440147 208.50121691 -21.57068905 211.93128379 -30.03125 211.7734375 C-37.325366 210.9224573 -44.01527118 208.18895731 -48.82177734 202.53808594 C-55.00810633 194.42059546 -54.90234254 186.19644362 -54.6875 176.3125 C-54.67597367 174.97852968 -54.66619894 173.64454303 -54.65820312 172.31054688 C-54.57352345 164.81087283 -54.18904206 157.37724103 -53.60473633 149.90161133 C-53.30146662 145.41122145 -53.22041526 140.92836809 -53.13525391 136.42944336 C-52.89351156 124.82662173 -52.0951175 113.43560759 -50.5 101.9375 C-50.33846436 100.76823975 -50.17692871 99.59897949 -50.01049805 98.39428711 C-49.04685084 91.87995709 -47.71337347 85.57423563 -46.04882812 79.20483398 C-45.14747866 75.58669965 -44.59810561 72.00344208 -44.0625 68.3125 C-42.73944488 59.71451041 -40.68855409 51.35135311 -38.56933594 42.91943359 C-36.70593814 35.34169325 -35.34304736 27.81203242 -34.57617188 20.04345703 C-33.77526453 13.26059028 -31.17329684 8.20092021 -26.2421875 3.44140625 C-25.25605469 2.75884766 -25.25605469 2.75884766 -24.25 2.0625 C-23.58742188 1.58941406 -22.92484375 1.11632812 -22.2421875 0.62890625 C-16.1248841 -3.06963075 -6.44321917 -2.87349853 0 0 Z " fill="#FFFFFF" transform="translate(1314.375,29.5)"/>
<path d="M0 0 C1.60668045 -0.0131424 1.60668045 -0.0131424 3.24581909 -0.02655029 C22.78826478 -0.13605691 39.55896144 1.87642949 54.6875 15.625 C65.40998747 27.04932301 68.51396062 41.17578442 68.125 56.40234375 C67.60855366 67.472371 64.6959556 77.64444815 59.875 87.5625 C59.52518066 88.29049805 59.17536133 89.01849609 58.81494141 89.76855469 C53.93624304 99.81903969 49.10954409 108.82613117 40.875 116.5625 C39.85019531 117.614375 39.85019531 117.614375 38.8046875 118.6875 C29.31942802 127.92775278 16.6067707 133.72610176 3.34375 133.828125 C0.875 133.5625 0.875 133.5625 -2.78515625 132.42578125 C-7.87756714 131.11042889 -12.05775511 132.21018778 -17.0625 133.5 C-18.00327393 133.72800293 -18.94404785 133.95600586 -19.91333008 134.19091797 C-29.45164611 136.54518868 -38.9122907 139.20658874 -48.35546875 141.9140625 C-49.31670654 142.18686035 -50.27794434 142.4596582 -51.26831055 142.74072266 C-53.16522302 143.28640314 -55.05749614 143.84849024 -56.94458008 144.42724609 C-63.21930524 146.2881828 -68.8999175 147.04476444 -75.4375 146.9375 C-76.34540283 146.92734863 -77.25330566 146.91719727 -78.1887207 146.90673828 C-92.62181369 146.57694128 -104.46478316 143.67152282 -114.8125 133.0625 C-123.97149981 122.35802065 -127.31041174 111.40053364 -127.375 97.5625 C-127.395625 96.48871094 -127.41625 95.41492188 -127.4375 94.30859375 C-127.55393814 70.11857098 -114.72163422 50.12775566 -98.25 33.375 C-84.78494391 20.05212152 -67.1504784 11.09475823 -49.125 5.5625 C-48.38282227 5.31983398 -47.64064453 5.07716797 -46.87597656 4.82714844 C-31.52904639 0.02371751 -15.92962763 0.05730346 0 0 Z M-68.66015625 78.75 C-72.81006315 83.4852345 -75.88003112 87.76985471 -76.4375 94.125 C-76.334375 94.929375 -76.23125 95.73375 -76.125 96.5625 C-70.59431602 95.96074982 -65.34077388 95.00548965 -59.953125 93.63671875 C-58.39477993 93.25022586 -56.83643014 92.86375194 -55.27807617 92.47729492 C-54.47614838 92.27655365 -53.67422058 92.07581238 -52.84799194 91.86898804 C-28.34782745 85.73661516 -28.34782745 85.73661516 -17.06152344 83.87963867 C-11.83485935 82.95559095 -7.70541648 81.11820835 -3.125 78.5625 C-2.19945312 78.08425781 -1.27390625 77.60601562 -0.3203125 77.11328125 C2.28710825 75.27138438 3.44100046 73.52297459 5 70.75 C5.75023437 69.42355469 5.75023437 69.42355469 6.515625 68.0703125 C6.96421875 67.24273437 7.4128125 66.41515625 7.875 65.5625 C8.49375 64.428125 9.1125 63.29375 9.75 62.125 C11.07599503 59.57110743 11.07599503 59.57110743 10.875 56.5625 C-18.24045981 52.30505069 -47.76445088 56.70527411 -68.66015625 78.75 Z " fill="#FFFFFF" transform="translate(395.125,79.4375)"/>
<path d="M0 0 C2.60895512 0.00852361 5.21572145 -0.02038827 7.82446289 -0.05200195 C22.00567949 -0.11284105 34.15600026 2.48399058 47.24047852 8.13354492 C48.03639404 8.47458252 48.83230957 8.81562012 49.65234375 9.16699219 C66.06252788 16.42727544 83.88119823 28.27643692 90.95141602 45.36791992 C96.08346568 60.04668564 92.88965562 77.59849727 86.46704102 91.27807617 C77.00271459 110.51052683 60.8946865 126.45955473 40.71313477 134.64916992 C37.39130589 135.52131032 34.54542252 135.67808965 31.11547852 135.63354492 C29.47385742 135.62387695 29.47385742 135.62387695 27.79907227 135.61401367 C24.67797852 135.44604492 24.67797852 135.44604492 22.19750977 134.81323242 C18.71164685 134.30521519 16.27634424 135.3165228 12.92797852 136.38354492 C5.60069162 138.45388053 -1.4781159 138.866024 -9.07202148 138.88354492 C-10.6145459 138.89792603 -10.6145459 138.89792603 -12.18823242 138.91259766 C-22.4309964 138.80211722 -32.10466946 136.65290471 -41.25952148 132.00854492 C-42.26293579 131.49964722 -42.26293579 131.49964722 -43.28662109 130.98046875 C-54.44524018 124.99294932 -63.68888666 115.83248811 -69.32202148 104.44604492 C-69.6685376 103.77984131 -70.01505371 103.1136377 -70.37207031 102.42724609 C-73.94084384 94.78440704 -73.99216147 87.31912737 -73.88452148 79.00854492 C-73.8799292 78.30117187 -73.87533691 77.59379883 -73.87060547 76.86499023 C-73.67199908 54.61101844 -67.33599645 33.42317315 -52.32202148 16.44604492 C-37.68351097 2.22298462 -19.50851653 -0.09689358 0 0 Z M-16.32202148 53.44604492 C-17.2982463 55.3458938 -18.26843321 57.24884598 -19.23608398 59.15307617 C-20.04746826 60.74212769 -20.04746826 60.74212769 -20.87524414 62.36328125 C-22.75189006 66.36200011 -23.80059117 70.0770909 -24.32202148 74.44604492 C-24.42772461 75.23108398 -24.53342773 76.01612305 -24.64233398 76.82495117 C-25.00080385 81.25640171 -25.00080385 81.25640171 -23.04858398 85.08666992 C-15.25163341 91.70456943 -4.44741764 89.94233118 5.19750977 89.16088867 C16.86217767 87.18009601 27.8139896 79.09497913 35.67797852 70.44604492 C36.99699652 67.78071457 36.99699652 67.78071457 37.67797852 65.44604492 C33.19868113 61.41467728 28.13990919 58.8829063 22.67797852 56.44604492 C21.03249023 55.63393555 21.03249023 55.63393555 19.35375977 54.80541992 C12.81968999 52.39756404 5.54033274 53.1347516 -1.32202148 53.25854492 C-2.77903892 53.27361752 -4.23607141 53.28730137 -5.69311523 53.29956055 C-9.23640073 53.33236589 -12.77911319 53.38400585 -16.32202148 53.44604492 Z " fill="#FFFFFF" transform="translate(1000.322021484375,100.553955078125)"/>
<path d="M0 0 C6.23702374 5.81543566 9.00569882 10.79636703 9.3125 19.375 C9.1112593 27.62586887 6.92444088 32.62811998 1.109375 38.45703125 C-4.27474561 42.39541577 -9.98596456 43.55927206 -16.4375 44.5 C-28.18557814 46.22234268 -38.47464446 50.28378961 -45.8671875 60.18359375 C-50.74516619 68.00518027 -52.37627371 74.31927609 -51.6328125 83.421875 C-51.57552979 84.24993652 -51.51824707 85.07799805 -51.45922852 85.93115234 C-51.31759295 87.95493475 -51.16039216 89.97761769 -51 92 C-50.37074615 91.98889694 -49.74149231 91.97779388 -49.09317017 91.96635437 C-42.50643193 91.85519347 -35.91996289 91.78009844 -29.33251953 91.7253418 C-26.87863327 91.70029555 -24.42482087 91.66624867 -21.97119141 91.62280273 C-18.431129 91.56171761 -14.8920583 91.53368988 -11.3515625 91.51171875 C-9.722827 91.47300911 -9.722827 91.47300911 -8.06118774 91.43351746 C0.24496668 91.43050218 6.88914043 93.27292321 13.14486694 98.94462585 C18.68913146 104.72159639 21.07934777 110.41730507 21.4375 118.375 C21.18569916 125.95000855 18.9441094 132.28865808 13.75 137.875 C5.0253191 145.77941176 -4.32233955 146.15165454 -15.5859375 146.23828125 C-17.10871811 146.25038887 -17.10871811 146.25038887 -18.66226196 146.26274109 C-20.80884116 146.27653008 -22.9554418 146.28727525 -25.10205078 146.29516602 C-27.2661801 146.30662754 -29.43028247 146.32698552 -31.59423828 146.35668945 C-52.47804129 146.64270328 -71.8622317 145.4463812 -87.74609375 130.3828125 C-100.30140479 117.10943341 -103.36245113 101.25519055 -103.3125 83.5625 C-103.32861328 82.42490234 -103.34472656 81.28730469 -103.36132812 80.11523438 C-103.37318972 59.3218668 -94.56485642 39.51413697 -81 24 C-80.20335937 23.07767578 -80.20335937 23.07767578 -79.390625 22.13671875 C-66.63870637 8.40631131 -48.08357902 -0.22263776 -30 -4 C-28.89978516 -4.24363281 -28.89978516 -4.24363281 -27.77734375 -4.4921875 C-18.86100148 -6.04450186 -7.3812466 -5.76298672 0 0 Z " fill="#FFFFFF" transform="translate(1202,91)"/>
<path d="M0 0 C5.3015322 3.16744085 9.27157128 7.85198729 12.0625 13.3125 C13.31970436 20.43665805 12.98475977 27.14995948 10.89746094 34.05175781 C6.00047701 50.50750984 6.86736219 67.88112744 6.74580383 84.88142395 C6.68172726 91.93982 6.42381007 98.97966458 6.1171875 106.03125 C5.56113119 119.18391719 5.47223386 132.32174454 5.49462891 145.48486328 C5.50009525 149.31677017 5.49458612 153.1485649 5.48828125 156.98046875 C5.48894046 159.44010442 5.49021833 161.89974003 5.4921875 164.359375 C5.49016327 165.49364929 5.48813904 166.62792358 5.48605347 167.79656982 C5.50103212 172.81839038 5.60709445 177.56123657 6.625 182.5 C7.33027441 193.94714621 6.67337667 203.697235 -0.76953125 212.8125 C-5.94434912 218.25172462 -11.87156765 220.55301385 -19.25 220.8125 C-26.94380168 220.62794104 -33.76966344 217.83257079 -39.375 212.5 C-49.24041957 199.47356744 -46.53779594 180.70170246 -46.50537109 165.1340332 C-46.49996605 162.04308262 -46.50537334 158.95227458 -46.51171875 155.86132812 C-46.51105857 153.86718718 -46.50977867 151.87304633 -46.5078125 149.87890625 C-46.50983673 148.96935684 -46.51186096 148.05980743 -46.51394653 147.12269592 C-46.49610172 142.20525139 -46.21333454 137.42774278 -45.61080933 132.54786682 C-45.27981796 129.67339934 -45.17720008 126.80920335 -45.09375 123.91796875 C-45.05636719 122.73783203 -45.01898437 121.55769531 -44.98046875 120.34179688 C-44.94566406 119.13587891 -44.91085937 117.92996094 -44.875 116.6875 C-44.48459005 103.2906547 -44.48459005 103.2906547 -43.88671875 96.92578125 C-43.39816984 91.51364538 -43.20669823 86.11692353 -43.05078125 80.6875 C-42.00284623 46.10310561 -42.00284623 46.10310561 -38.625 30.5 C-38.39723877 29.43652344 -38.16947754 28.37304688 -37.93481445 27.27734375 C-35.6298919 17.74079398 -32.0776554 7.83303665 -24.18359375 1.5859375 C-17.12129651 -2.65449151 -7.61158148 -3.36637459 0 0 Z " fill="#FFFFFF" transform="translate(857.375,31.5)"/>
</svg>
